<svg width="24" height="24" viewBox="0 0 24 24" fill="none" xmlns="http://www.w3.org/2000/svg">
<path d="M15.1125 10.3792C15.6426 10.7244 16.2712 10.9216 16.9492 10.9216C18.8352 10.9216 20.3637 9.39311 20.3637 7.50714C20.3637 5.62116 18.8352 4.09265 16.9492 4.09265C15.0632 4.09265 13.5347 5.62116 13.5347 7.50714C13.5347 8.03718 13.6703 8.53025 13.8798 8.98633L9.02315 13.843C8.54241 13.5965 8.01236 13.4363 7.44534 13.4363C5.55936 13.4363 4.03085 14.9648 4.03085 16.8507C4.03085 18.7367 5.55936 20.2652 7.44534 20.2652C9.33132 20.2652 10.8598 18.7367 10.8598 16.8507C10.8598 16.2098 10.6749 15.6181 10.3668 15.1127L15.1002 10.3792H15.1125ZM16.9492 5.94165C17.8121 5.94165 18.5147 6.64427 18.5147 7.50714C18.5147 8.37 17.8121 9.07262 16.9492 9.07262C16.0863 9.07262 15.3837 8.37 15.3837 7.50714C15.3837 6.64427 16.0863 5.94165 16.9492 5.94165ZM7.44534 18.4162C6.58247 18.4162 5.87985 17.7136 5.87985 16.8507C5.87985 15.9879 6.58247 15.2853 7.44534 15.2853C8.3082 15.2853 9.01082 15.9879 9.01082 16.8507C9.01082 17.7136 8.3082 18.4162 7.44534 18.4162Z" fill="#008CDA"/>
<path d="M0 0V24H23.9384V0H0ZM1.849 1.849H11.5871L8.99846 4.4376C8.5547 4.21572 8.0493 4.09245 7.51926 4.09245C5.63328 4.09245 4.10477 5.62096 4.10477 7.50693C4.10477 9.39291 5.63328 10.9214 7.51926 10.9214C9.40524 10.9214 10.9337 9.39291 10.9337 7.50693C10.9337 6.82897 10.7242 6.20031 10.3914 5.67026L14.2003 1.86133H22.0894V20.5855L20.3267 18.6502C20.5855 18.1695 20.7581 17.6148 20.7581 17.0231C20.7581 15.1371 19.2296 13.6086 17.3436 13.6086C15.4576 13.6086 13.9291 15.1371 13.9291 17.0231C13.9291 18.9091 15.4576 20.4376 17.3436 20.4376C17.9599 20.4376 18.5393 20.265 19.0447 19.9692L21.0293 22.151H1.86132V1.849H1.849ZM9.09707 7.50693C9.09707 8.3698 8.39445 9.07242 7.53159 9.07242C6.66872 9.07242 5.9661 8.3698 5.9661 7.50693C5.9661 6.64407 6.66872 5.94145 7.53159 5.94145C8.39445 5.94145 9.09707 6.64407 9.09707 7.50693ZM17.3436 18.5886C16.4807 18.5886 15.7781 17.886 15.7781 17.0231C15.7781 16.1602 16.4807 15.4576 17.3436 15.4576C18.2065 15.4576 18.9091 16.1602 18.9091 17.0231C18.9091 17.886 18.2065 18.5886 17.3436 18.5886Z" fill="#008CDA"/>
</svg>
