<svg width="24" height="22" viewBox="0 0 24 22" fill="none" xmlns="http://www.w3.org/2000/svg">
<path d="M10.8418 12.5594H9.02021C8.51305 12.5594 8.05765 12.3686 7.73679 12.0634C7.40559 11.7582 7.19858 11.3386 7.19858 10.8808V5.99765C7.19858 5.75922 7.09508 5.53986 6.91913 5.38726C6.75353 5.23466 6.53617 5.13929 6.28777 5.12975C6.03936 5.13929 5.81166 5.23466 5.65641 5.38726C5.48045 5.53986 5.37695 5.75922 5.37695 5.99765V5.12975C5.37695 4.66242 5.58396 4.24277 5.91516 3.94712C6.24637 3.64192 6.70177 3.45117 7.19858 3.45117C7.35383 3.45117 7.50909 3.47025 7.65399 3.5084C7.71609 3.51793 7.76784 3.53701 7.82994 3.55608C8.3371 3.72776 8.73041 4.09018 8.91671 4.55751C8.93741 4.60519 8.95811 4.66242 8.96846 4.71964C9.00986 4.85316 9.03056 4.99623 9.03056 5.13929V10.8903C9.03056 11.3577 9.23757 11.7773 9.56877 12.073C9.89998 12.3686 10.3347 12.5594 10.8418 12.5594Z" fill="#008CDA"/>
<path d="M15.4892 13.7993L15.4685 13.7898C15.4477 13.7706 15.427 13.761 15.4062 13.7515C15.4374 13.761 15.4581 13.7802 15.4892 13.7993Z" fill="#008CDA"/>
<path d="M16.1618 15.1058V16.7844C16.1618 16.3171 15.9548 15.8974 15.6236 15.6017C15.2924 15.2966 14.837 15.1058 14.3401 15.1058H5.36655C4.85939 15.1058 4.40399 14.9151 4.08313 14.6099C3.75193 14.3047 3.54492 13.885 3.54492 13.4272V5.12972C3.54492 5.1011 3.54492 5.07249 3.54492 5.04388C3.55527 4.88175 3.59667 4.71007 3.64842 4.55747C3.74158 4.32858 3.88648 4.11876 4.07278 3.94708C4.20733 3.8231 4.35224 3.72772 4.51784 3.65142C4.68344 3.57513 4.85939 3.5179 5.0457 3.48929C5.1492 3.47021 5.26305 3.47021 5.36655 3.47021C5.70811 3.47021 6.03931 3.47021 6.38087 3.47021C6.60857 3.47021 6.83627 3.47021 7.05363 3.47021H7.17783C6.67067 3.47021 6.21527 3.66096 5.89441 3.96616C5.5632 4.27135 5.3562 4.691 5.3562 5.14879V12.5784C5.3562 12.8168 5.4597 13.0362 5.63566 13.1888C5.80126 13.3509 6.03931 13.4463 6.29807 13.4463H14.3298C14.3401 13.4463 14.3401 13.4463 14.3505 13.4463C14.6921 13.4463 15.0026 13.5321 15.282 13.6847C15.3027 13.6943 15.3234 13.7038 15.3441 13.7229C15.8306 13.9995 16.1618 14.5717 16.1618 15.1058Z" fill="#008CDA"/>
<path d="M15.9859 15.2775V16.9561C15.9859 16.6986 15.9238 16.4601 15.81 16.2408V15.4396C15.81 14.9056 15.4788 14.3333 14.9923 14.0377C14.9716 14.0281 14.9509 14.009 14.9302 13.9995C14.6611 13.8469 14.3402 13.7611 13.9987 13.7611C13.9883 13.7611 13.9883 13.7611 13.978 13.7611H5.94626C5.68751 13.7611 5.44945 13.6657 5.28385 13.5036C5.1079 13.351 5.00439 13.1316 5.00439 12.8932V5.12975C5.00439 4.66242 5.2114 4.24277 5.5426 3.94712C5.87381 3.64192 6.31887 3.46071 6.82602 3.45117H7.01233C6.50517 3.45117 6.04976 3.64192 5.72891 3.94712C5.3977 4.25231 5.1907 4.67195 5.1907 5.12975V12.731C5.1907 12.9695 5.2942 13.1888 5.47015 13.3414C5.63575 13.5036 5.87381 13.5989 6.13256 13.5989H14.1643C14.1746 13.5989 14.1746 13.5989 14.185 13.5989C14.5266 13.5989 14.8371 13.6848 15.1165 13.8374C15.1372 13.8469 15.1579 13.8564 15.1786 13.8755C15.6444 14.1616 15.9859 14.7434 15.9859 15.2775Z" fill="#008CDA"/>
<path d="M16.1618 16.7843C16.1618 17.7094 15.3441 18.4629 14.3401 18.4629H5.3562C5.01465 18.4629 4.69379 18.377 4.42469 18.2244L4.22803 18.1004C3.91753 17.9097 3.70017 17.5377 3.60702 17.2135C3.59667 17.1848 3.59667 17.1562 3.58632 17.1372C3.57597 17.0799 3.56562 17.0132 3.55527 16.9559C3.55527 16.9273 3.54492 16.9083 3.54492 16.8796C3.54492 16.851 3.54492 16.8224 3.54492 16.7938V15.1152C3.54492 15.5826 3.75193 16.0022 4.08313 16.2979C4.41434 16.6031 4.86974 16.7938 5.36655 16.7938H13.3983C13.657 16.7938 13.8951 16.6984 14.0607 16.5363C14.2263 16.3837 14.3298 16.1834 14.3401 15.9545C14.3401 15.9641 14.3401 15.9736 14.3401 15.9831V15.9259C14.3401 15.9354 14.3401 15.945 14.3401 15.9545C14.3298 15.7256 14.2263 15.5158 14.0607 15.3727C13.8951 15.2106 13.657 15.1152 13.3983 15.1152H14.3401C14.8473 15.1152 15.3027 15.306 15.6236 15.6112C15.9651 15.8973 16.1618 16.3169 16.1618 16.7843Z" fill="#008CDA"/>
<path d="M16.1618 16.7843C16.1618 17.7094 15.3441 18.4629 14.3401 18.4629H5.3562C5.01465 18.4629 4.69379 18.377 4.42469 18.2244L4.22803 18.1004C3.91753 17.9097 3.70017 17.5377 3.60702 17.2135C3.59667 17.1848 3.59667 17.1562 3.58632 17.1372C3.57597 17.0799 3.56562 17.0132 3.55527 16.9559C3.55527 16.9273 3.54492 16.9083 3.54492 16.8796C3.54492 16.851 3.54492 16.8224 3.54492 16.7938V15.1152C3.54492 15.5826 3.75193 16.0022 4.08313 16.2979C4.41434 16.6031 4.86974 16.7938 5.36655 16.7938H13.3983C13.657 16.7938 13.8951 16.6984 14.0607 16.5363C14.2263 16.3837 14.3298 16.1834 14.3401 15.9545C14.3401 15.9641 14.3401 15.9736 14.3401 15.9831V15.9259C14.3401 15.9354 14.3401 15.945 14.3401 15.9545C14.3298 15.7256 14.2263 15.5158 14.0607 15.3727C13.8951 15.2106 13.657 15.1152 13.3983 15.1152H14.3401C14.8473 15.1152 15.3027 15.306 15.6236 15.6112C15.9651 15.8973 16.1618 16.3169 16.1618 16.7843Z" fill="#008CDA"/>
<path opacity="0.5" d="M14.3298 16.0499C14.3401 16.0881 14.3401 16.1167 14.3401 16.1548C14.3298 16.3837 14.2263 16.5936 14.0607 16.7366C13.8951 16.8988 13.657 16.9941 13.3983 16.9941H5.36655C4.85939 16.9941 4.40399 16.8034 4.08313 16.4982C3.75193 16.193 3.54492 15.7733 3.54492 15.306V15.0962C3.54492 15.5635 3.75193 15.9832 4.08313 16.2884C4.41434 16.5936 4.86974 16.7843 5.36655 16.7843H13.3983C13.657 16.7843 13.8951 16.6889 14.0607 16.5268C14.2056 16.4028 14.2987 16.2407 14.3298 16.0499Z" fill="#008CDA"/>
<path opacity="0.5" d="M16.1619 16.7845C16.1619 17.29 15.9239 17.7383 15.5409 18.053C15.8204 17.7573 15.9963 17.3759 15.9963 16.9467C15.9963 16.4793 15.7893 16.0597 15.4581 15.764C15.1269 15.4588 14.6715 15.2681 14.1747 15.2681H13.947C13.7917 15.1632 13.6054 15.106 13.3984 15.106H14.3403C14.8475 15.106 15.3029 15.2967 15.6237 15.6019C15.9653 15.8976 16.1619 16.3172 16.1619 16.7845Z" fill="#008CDA"/>
<path opacity="0.5" d="M9.54807 12.0636C9.21687 11.7584 9.00986 11.3388 9.00986 10.881V5.12998C9.00986 4.98692 8.98916 4.84386 8.94776 4.71033C8.93741 4.65311 8.91671 4.60542 8.89601 4.55773C8.79251 4.30023 8.61656 4.06179 8.3992 3.88058C8.3785 3.86151 8.34745 3.84243 8.32675 3.82336C8.1301 3.6803 7.89204 3.56585 7.65399 3.50862C7.63329 3.50862 7.61259 3.49909 7.59189 3.49909C7.46769 3.47048 7.33313 3.46094 7.19858 3.46094C7.16753 3.46094 7.13648 3.46094 7.10543 3.46094C6.63967 3.48001 6.22567 3.67076 5.91516 3.94734C5.58396 4.25254 5.37695 4.67218 5.37695 5.12998V5.99788C5.37695 5.80713 5.43905 5.63546 5.55291 5.4924V5.28258C5.55291 4.81524 5.75991 4.3956 6.09111 4.09994C6.42232 3.79475 6.90878 3.604 7.38489 3.62307C7.89204 3.64215 8.34745 3.92827 8.60621 4.32884C8.64761 4.40514 8.68901 4.48144 8.72006 4.55773C8.74076 4.60542 8.76146 4.66265 8.77181 4.71033C8.81321 4.84386 8.83391 4.98692 8.83391 5.12998V10.881C8.83391 11.3483 9.04091 11.768 9.37212 12.0636C9.70332 12.3688 10.1587 12.5596 10.6555 12.5596H10.8522C10.3347 12.5596 9.87928 12.3688 9.54807 12.0636Z" fill="#008CDA"/>
<path d="M12.6427 7.35205V9.09739C12.5599 9.09739 12.4875 9.09739 12.4047 9.10693C11.5353 9.2023 10.8728 9.83177 10.8418 10.5948V9.06878C10.8418 8.28671 11.5249 7.48557 12.4047 7.36159C12.4771 7.36159 12.5599 7.35205 12.6427 7.35205Z" fill="#008CDA"/>
<path d="M12.6425 9.31641V10.4514C12.6425 10.6421 12.5494 10.8233 12.4045 10.9568C12.3941 10.9664 12.3838 10.9759 12.3838 10.9759L12.3734 10.9854C12.3631 10.995 12.3527 11.0045 12.3424 11.0045C12.332 11.0141 12.3217 11.0141 12.3113 11.0236L12.301 11.0331C12.2906 11.0427 12.2803 11.0427 12.2699 11.0522C12.2596 11.0617 12.2492 11.0617 12.2285 11.0713C12.2285 11.0713 12.2285 11.0713 12.2182 11.0713C12.2078 11.0713 12.1975 11.0808 12.1871 11.0808C12.1768 11.0904 12.1664 11.0904 12.1561 11.0904C12.1561 11.0904 12.1457 11.0904 12.1457 11.0999C12.1354 11.0999 12.1354 11.1094 12.125 11.1094C12.1147 11.1094 12.1043 11.119 12.094 11.119C11.3902 11.3193 10.883 11.882 10.8623 12.5496V11.0236C10.8623 11.0141 10.8623 11.0141 10.8623 11.0045C10.8727 10.232 11.5454 9.44039 12.4252 9.31641C12.4769 9.32594 12.5597 9.31641 12.6425 9.31641Z" fill="#008CDA"/>
<path d="M15.1991 7.35205C15.1991 7.36159 15.1991 7.38066 15.1991 7.3902C15.1991 7.3902 15.1991 7.3902 15.1991 7.39974C15.1991 7.40927 15.1991 7.42835 15.1991 7.43789C15.1991 7.44742 15.1991 7.4665 15.1991 7.47604C15.1991 7.48557 15.1991 7.50465 15.1991 7.51419C15.1991 7.52372 15.1991 7.53326 15.1991 7.5428V7.55234C15.1991 7.56187 15.1991 7.57141 15.1991 7.59049C15.1887 7.62863 15.1887 7.66678 15.1784 7.70493C15.168 7.73355 15.168 7.76216 15.1577 7.78123C15.1577 7.79077 15.1473 7.80031 15.1473 7.81938V7.82892C15.1473 7.83846 15.137 7.84799 15.137 7.86707C15.137 7.87661 15.1266 7.89568 15.1266 7.90522C15.1266 7.91476 15.1163 7.92429 15.1163 7.93383C15.1059 7.9529 15.1059 7.97198 15.0956 7.99105C15.0852 8.01013 15.0749 8.03874 15.0645 8.05782C15.0438 8.09597 15.0335 8.13411 15.0128 8.17226C15.0128 8.1818 15.0024 8.19134 15.0024 8.20088C15.0024 8.20088 15.0024 8.21041 14.9921 8.21041C14.9817 8.21995 14.9817 8.22949 14.9714 8.23903C14.961 8.2581 14.9403 8.28671 14.93 8.30579C14.9196 8.31533 14.9196 8.32486 14.9093 8.34394C14.8989 8.36301 14.8782 8.39162 14.8575 8.4107C14.8472 8.42024 14.8368 8.42977 14.8368 8.43931C14.8265 8.45839 14.8161 8.46792 14.7954 8.487C14.7851 8.50607 14.7644 8.51561 14.754 8.53468C14.754 8.53468 14.754 8.53468 14.754 8.54422C14.7437 8.55376 14.7333 8.5633 14.7333 8.57283L14.723 8.58237C14.7126 8.59191 14.7126 8.60145 14.7023 8.60145C14.6919 8.61098 14.6816 8.62052 14.6712 8.63006C14.6609 8.6396 14.6505 8.64913 14.6505 8.64913L14.6402 8.65867C14.6298 8.66821 14.6195 8.67775 14.6091 8.67775L14.5988 8.68728C14.5884 8.69682 14.5781 8.70636 14.5677 8.70636C14.5574 8.71589 14.5367 8.73497 14.516 8.74451C14.4953 8.75404 14.4849 8.76358 14.4642 8.78266C14.4539 8.79219 14.4332 8.80173 14.4228 8.81127C14.4125 8.82081 14.4021 8.82081 14.4021 8.83034C14.3918 8.83988 14.3711 8.84942 14.3607 8.84942C14.34 8.85895 14.3193 8.86849 14.309 8.87803C14.0606 9.00202 13.7604 9.07831 13.4085 9.07831L12.6426 9.09739V7.35205H15.1991Z" fill="#008CDA"/>
<path d="M15.1991 7.35205C15.1991 7.36159 15.1991 7.38066 15.1991 7.3902C15.1991 7.3902 15.1991 7.3902 15.1991 7.39974C15.1991 7.40927 15.1991 7.42835 15.1991 7.43789C15.1991 7.44742 15.1991 7.4665 15.1991 7.47604C15.1991 7.48557 15.1991 7.50465 15.1991 7.51419C15.1991 7.52372 15.1991 7.53326 15.1991 7.5428V7.55234C15.1991 7.56187 15.1991 7.57141 15.1991 7.59049C15.1887 7.62863 15.1887 7.66678 15.1784 7.70493C15.1784 7.73355 15.168 7.76216 15.1577 7.78123C15.1577 7.79077 15.1473 7.80031 15.1473 7.81938V7.82892C15.1473 7.83846 15.137 7.84799 15.137 7.86707C15.137 7.87661 15.1266 7.89568 15.1266 7.90522C15.1266 7.91476 15.1163 7.92429 15.1163 7.93383C15.1059 7.9529 15.1059 7.97198 15.0956 7.99105C15.0852 8.01013 15.0749 8.03874 15.0645 8.05782C15.0438 8.09597 15.0335 8.13411 15.0128 8.17226C15.0128 8.1818 15.0024 8.19134 15.0024 8.20088C15.0024 8.20088 15.0024 8.21041 14.9921 8.21041C14.9817 8.21995 14.9817 8.22949 14.9714 8.23903C14.961 8.2581 14.9403 8.28671 14.93 8.30579C14.9196 8.31533 14.9196 8.32486 14.9093 8.34394C14.8989 8.36301 14.8782 8.39162 14.8575 8.4107C14.8472 8.42024 14.8368 8.42977 14.8368 8.43931C14.8265 8.45839 14.8161 8.46792 14.7954 8.487C14.7851 8.50607 14.7644 8.51561 14.754 8.53468C14.754 8.53468 14.754 8.53468 14.754 8.54422C14.7437 8.55376 14.7333 8.5633 14.7333 8.57283L14.723 8.58237C14.7126 8.59191 14.7126 8.60145 14.7023 8.60145C14.6919 8.61098 14.6816 8.62052 14.6712 8.63006C14.6609 8.6396 14.6505 8.64913 14.6505 8.64913L14.6402 8.65867C14.6298 8.66821 14.6195 8.67775 14.6091 8.67775L14.5988 8.68728C14.5884 8.69682 14.5781 8.70636 14.5677 8.70636C14.5574 8.71589 14.5367 8.73497 14.516 8.74451C14.4953 8.75404 14.4849 8.76358 14.4642 8.78266C14.4539 8.79219 14.4332 8.80173 14.4228 8.81127C14.4125 8.82081 14.4021 8.82081 14.4021 8.83034C14.3918 8.83988 14.3711 8.84942 14.3607 8.84942C14.34 8.85895 14.3193 8.86849 14.309 8.87803C14.7644 8.54422 14.9921 8.01013 14.9921 7.48557H12.6426V7.35205H15.1991Z" fill="#008CDA"/>
<path opacity="0.2" d="M12.4048 7.37113C12.4876 7.36159 12.56 7.35205 12.6428 7.35205V9.09739C12.56 9.09739 12.4876 9.09739 12.4048 9.10693V7.37113Z" fill="#008CDA"/>
<path opacity="0.2" d="M12.4045 9.33548C12.4873 9.32594 12.5597 9.31641 12.6425 9.31641V10.4514C12.6425 10.6421 12.5494 10.8233 12.4045 10.9568C12.3941 10.9664 12.3838 10.9759 12.3838 10.9759L12.3734 10.9854C12.3631 10.995 12.3527 11.0045 12.3424 11.0045C12.332 11.0141 12.3217 11.0141 12.3113 11.0236L12.301 11.0331C12.2906 11.0427 12.2803 11.0427 12.2699 11.0522C12.2596 11.0617 12.2492 11.0617 12.2285 11.0713C12.2285 11.0713 12.2285 11.0713 12.2182 11.0713C12.2078 11.0713 12.1975 11.0808 12.1871 11.0808C12.1768 11.0904 12.1664 11.0904 12.1561 11.0904C12.1561 11.0904 12.1457 11.0904 12.1457 11.0999C12.1354 11.0999 12.1354 11.1094 12.125 11.1094C12.1147 11.1094 12.1043 11.119 12.094 11.119C11.3902 11.3193 10.883 11.882 10.8623 12.5496V12.3302C10.883 11.6626 11.3902 11.0999 12.094 10.8996C12.2906 10.8424 12.4148 10.6803 12.4148 10.5086V9.33548H12.4045Z" fill="#008CDA"/>
<path d="M12.6427 5.38721V7.13255C12.5599 7.13255 12.4875 7.13255 12.4047 7.14208C11.5353 7.23746 10.8728 7.86692 10.8418 8.62991V7.10393C10.8418 6.32187 11.5249 5.52073 12.4047 5.39674C12.4771 5.38721 12.5599 5.38721 12.6427 5.38721Z" fill="#008CDA"/>
<path d="M17.0001 5.38721C17.0001 6.23603 16.3998 7.11347 15.1992 7.11347L12.6323 7.13255V5.38721H17.0001Z" fill="#008CDA"/>
<path d="M17 5.38721C17 5.98806 16.6998 6.60799 16.0995 6.91319C16.5549 6.57938 16.7826 6.04529 16.7826 5.52073H12.6426V5.38721H17Z" fill="#008CDA"/>
<path opacity="0.2" d="M12.6428 5.38721V7.13255C12.56 7.13255 12.4876 7.13255 12.4048 7.14208V5.39674C12.4772 5.38721 12.56 5.38721 12.6428 5.38721Z" fill="#008CDA"/>
<path d="M18.8347 18.7312C19.2304 18.5826 19.7987 18.6817 20.0118 18.9986C20.3467 19.4939 19.7277 20.326 19.6059 20.4845C18.7941 21.5939 17.3429 22 16.4296 22C14.126 22 11.8326 22 9.52896 22C7.46892 21.9802 5.39873 21.9604 3.33869 21.9406C3.00381 21.8712 1.79619 21.5939 0.913319 20.5043C0.2537 19.692 0.111629 18.8402 0.0710372 18.4638C0.0507412 13.5507 0.020296 8.62765 0 3.71454C0 3.08059 0.152221 1.98109 0.984356 1.12922C1.86723 0.227825 3.10529 0.0693376 3.74461 0.0297158C5.57125 0.0198104 7.40803 0.00990545 9.23467 0C11.6195 0 14.0042 0.0099053 16.389 0.0099053C16.6427 -1.50869e-07 18.0025 -0.0198104 19.129 1.01036C20.1844 1.98109 20.296 3.19946 20.3163 3.46691C20.3366 4.59613 20.3569 5.73525 20.367 6.88429C20.3873 9.11301 20.3873 11.312 20.3772 13.4912C20.3772 13.5407 20.3975 13.6299 20.4584 13.7091C20.6207 13.9271 20.9252 13.8973 20.9455 13.8973C21.808 13.9072 22.6706 13.9172 23.523 13.9172C23.5839 13.937 23.7362 13.9964 23.8478 14.145C23.9899 14.3233 23.9899 14.5115 23.9899 14.5709C23.9899 14.769 23.9899 14.9572 24 15.1553C23.9696 15.2247 23.8985 15.3931 23.7057 15.5317C23.5028 15.6704 23.2998 15.6803 23.2288 15.6803C22.0617 15.6704 20.8947 15.6605 19.7277 15.6506C19.7277 15.6506 18.5099 15.4426 18.4693 14.2242C18.4288 13.0059 18.4998 3.65511 18.4998 3.65511C18.4998 3.65511 18.5099 2.05043 16.2368 1.74336C12.2588 1.80279 8.27061 1.85232 4.2926 1.91175C3.8055 1.92166 3.11543 2.11977 2.59789 2.64475C2.11078 3.14003 1.96871 3.77398 1.92812 4.1801C1.92812 6.09185 1.91797 8.0036 1.91797 9.92526C1.93827 12.7384 1.96871 15.5416 1.98901 18.3548C2.01945 18.5628 2.13108 19.0581 2.55729 19.5137C3.08499 20.0783 3.73446 20.2071 3.92727 20.2368C5.59154 20.2765 7.27611 20.2963 8.97083 20.3161C11.518 20.3458 14.0347 20.3557 16.5209 20.3359C17.0283 20.3359 17.4748 20.118 17.8909 19.7416C18.3679 19.3255 18.3679 18.9095 18.8347 18.7312Z" fill="#008CDA"/>
</svg>
