<svg width="22" height="23" viewBox="0 0 22 23" fill="none" xmlns="http://www.w3.org/2000/svg">
<path d="M17.37 14V8.44L21.22 4.59L16.62 0L12.77 3.85H8.26C7.91 1.91 6.21 0.43 4.17 0.43C1.87 0.43 0 2.3 0 4.6C0 6.9 1.77 8.65 3.98 8.75V13.88H0.2V22.32H8.64V13.88H5.48V8.54C6.9 8.06 7.99 6.86 8.26 5.35H12.77L15.87 8.45V14.01C13.93 14.37 12.45 16.06 12.45 18.1C12.45 20.4 14.32 22.27 16.62 22.27C18.92 22.27 20.79 20.4 20.79 18.1C20.79 16.06 19.31 14.36 17.37 14.01V14ZM7.15 20.81H1.7V15.37H7.14V20.81H7.15ZM4.18 7.26C2.71 7.26 1.51 6.06 1.51 4.59C1.51 3.12 2.71 1.92 4.18 1.92C5.65 1.92 6.85 3.12 6.85 4.59C6.85 6.06 5.65 7.26 4.18 7.26ZM16.63 2.12L19.11 4.6L16.63 7.07L14.16 4.6L16.63 2.12ZM16.63 20.76C15.16 20.76 13.96 19.56 13.96 18.09C13.96 16.62 15.16 15.42 16.63 15.42C18.1 15.42 19.3 16.62 19.3 18.09C19.3 19.56 18.1 20.76 16.63 20.76Z" fill="#008CDA"/>
</svg>
