<svg width="34" height="29" viewBox="0 0 34 29" fill="none" xmlns="http://www.w3.org/2000/svg">
<path d="M33.6547 15.0963C31.8486 11.1404 30.1165 7.15547 28.3844 3.17051C28.1624 2.67603 27.8663 2.45787 27.3037 2.47242C23.5731 2.48696 24.8906 2.47242 21.16 2.47242C20.8639 2.47242 20.701 2.3997 20.553 2.10883C19.9016 0.785356 18.4804 0.0290873 17 0C17 0 17 0 16.9852 0C16.9852 0 16.9852 0 16.9704 0C15.49 0.0290873 14.0688 0.7999 13.4174 2.10883C13.2693 2.3997 13.1065 2.47242 12.8104 2.47242C9.07976 2.47242 10.3973 2.47242 6.66668 2.47242C6.10412 2.47242 5.79323 2.67603 5.58597 3.17051C3.83908 7.15547 2.12179 11.1404 0.315684 15.0963C-0.0988333 15.9835 -0.0692276 16.7833 0.197248 17.6414C1.07069 20.5211 3.83909 22.4117 6.90355 22.1936C9.87919 21.99 12.3811 19.7212 12.8252 16.7979C12.9289 16.1143 12.8992 15.4453 12.5735 14.7618C11.0635 11.4895 9.62752 8.18807 8.16191 4.88666C8.08788 4.71214 8.01386 4.53761 7.92503 4.30492C8.13229 4.30492 8.29514 4.27583 8.44318 4.27583C11.5817 4.27583 9.67193 4.27583 12.8104 4.27583C13.1361 4.27583 13.3138 4.37763 13.447 4.66851C13.8615 5.58475 14.5573 6.23922 15.5048 6.6319C15.7861 6.74825 15.8601 6.89368 15.8601 7.18455C15.8601 13.5547 15.8601 19.9248 15.8601 26.2949C15.8601 26.673 15.7268 26.7603 15.3715 26.7603C13.8911 26.7603 9.62752 26.7603 9.62752 26.7603V29H24.3725V26.7603C24.3725 26.7603 20.1237 26.7603 18.6285 26.7603C18.2732 26.7603 18.1399 26.673 18.1399 26.2949C18.1399 19.9248 18.1399 13.5547 18.1399 7.18455C18.1399 6.89368 18.2139 6.74825 18.4952 6.6319C19.4427 6.23922 20.1385 5.58475 20.553 4.66851C20.6862 4.36309 20.8491 4.27583 21.1896 4.27583C24.3281 4.27583 22.4183 4.27583 25.5568 4.27583C25.7049 4.27583 25.8677 4.29037 26.075 4.30492C25.9713 4.53761 25.9121 4.71214 25.8381 4.88666C24.3725 8.17352 22.9365 11.4895 21.4265 14.7618C21.1156 15.4453 21.0712 16.0998 21.1748 16.7979C21.6189 19.7212 24.1208 21.99 27.0965 22.1936C30.1461 22.4117 32.9145 20.5211 33.8028 17.6414C34.0692 16.7833 34.0988 15.9835 33.6843 15.0963H33.6547ZM6.13373 19.983C4.38684 19.823 2.28464 18.2232 2.5215 16.9724H10.4565C10.4565 18.674 8.19151 20.172 6.13373 19.983ZM9.99762 14.7472L3.05446 14.6891C3.05446 14.6891 5.42313 9.01705 6.51864 6.53009C7.62895 9.01705 10.0124 14.7472 10.0124 14.7472H9.99762ZM16.9852 4.72668C16.2302 4.72668 15.3863 4.13039 15.3715 3.38867C15.3715 2.6324 15.9785 2.02156 16.7631 2.00702H17.2073C17.9771 2.00702 18.5989 2.6324 18.5989 3.38867C18.5989 4.13039 17.755 4.71214 16.9852 4.72668ZM27.4666 6.54463C28.5621 9.0316 30.9307 14.7036 30.9307 14.7036L23.9876 14.7618C23.9876 14.7618 26.371 9.0316 27.4814 6.54463H27.4666ZM27.8367 19.9975C25.7937 20.1866 23.5286 18.7031 23.5138 16.987H31.4489C31.6709 18.2232 29.5836 19.8375 27.8367 19.9975Z" fill="#008CDA"/>
</svg>
