<svg width="24" height="24" viewBox="0 0 24 24" fill="none" xmlns="http://www.w3.org/2000/svg">
<path d="M21.3134 10.9228C22.044 10.1247 22.3925 9.19169 22.2239 8.11253C22.0553 7.03337 21.5045 6.19028 20.5602 5.63946C19.7508 5.16733 18.8852 5.00995 17.9747 5.2685C16.5583 5.67318 15.7827 6.66241 15.4679 8.06756C15.1532 7.85398 14.8384 7.65164 14.5237 7.43806C14.9396 6.97716 15.2094 6.44883 15.3443 5.8418C15.4792 5.23478 15.423 4.63899 15.2206 4.05445C15.0183 3.4699 14.6923 2.95281 14.2201 2.55937C12.9836 1.53641 11.3087 1.39028 9.89227 2.46944C9.24028 2.96405 8.8356 3.62728 8.65574 4.43665C8.3972 5.58325 8.73443 6.58372 9.47635 7.4493C9.15035 7.66288 8.8356 7.86522 8.5096 8.06756C8.28478 6.9322 7.71148 6.04414 6.66604 5.51581C5.62061 4.98747 4.56394 5.02119 3.54099 5.57201C2.61921 6.06663 2.0459 6.84227 1.80984 7.85398C1.54005 9.03431 1.91101 10.0348 2.69789 10.9341C1.86604 11.3725 1.22529 12.0132 0.730681 12.8114C0.236067 13.6095 0.0224824 14.4863 0 15.4193H1.68618C1.73115 15.1383 1.76488 14.8573 1.83232 14.5875C2.20328 12.9463 3.91194 11.676 5.82295 12.0807C6.18267 12.1594 6.51991 12.328 6.86839 12.4741C7.10445 12.5753 7.34052 12.6989 7.58782 12.8114C7.59906 12.7664 7.61031 12.7439 7.61031 12.7102C7.76769 12.1818 7.8801 11.631 8.09368 11.1252C8.85809 9.32658 10.7466 8.25866 12.815 8.64087C14.1527 8.88817 15.1419 9.63009 15.7939 10.8217C16.1087 11.4062 16.2323 12.047 16.4009 12.6877C16.4009 12.7214 16.4234 12.7552 16.4347 12.8114C16.6482 12.6989 16.8618 12.609 17.0529 12.4966C17.8173 12.0582 18.6379 11.9233 19.5035 12.0582C20.8525 12.2718 22.0216 13.4409 22.2351 14.8011C22.2689 15.0146 22.2801 15.217 22.3026 15.4306H24C23.8988 13.4521 22.9995 11.957 21.3246 10.9341L21.3134 10.9228ZM5.09227 10.2933C4.19297 10.2933 3.40609 9.54016 3.41733 8.57342C3.41733 7.59543 4.1705 6.86475 5.19345 6.86475C6.12647 6.86475 6.84591 7.61791 6.84591 8.58466C6.84591 9.57389 6.10398 10.2821 5.09227 10.2933ZM11.9494 6.86475C11.0614 6.86475 10.2632 6.13407 10.2745 5.14485C10.2295 4.32424 10.9489 3.4137 12.0393 3.43618C12.9724 3.44742 13.703 4.20058 13.6918 5.17857C13.6918 6.15656 12.9499 6.86475 11.9382 6.87599L11.9494 6.86475ZM18.8066 10.2933C17.9073 10.2933 17.1204 9.54016 17.1316 8.57342C17.1316 7.59543 17.8848 6.86475 18.9077 6.86475C19.8408 6.86475 20.5602 7.61791 20.5602 8.58466C20.5602 9.57389 19.8183 10.2821 18.8066 10.2933Z" fill="#008CDA"/>
<path d="M14.4449 17.7798C15.1418 17.0604 15.4678 16.206 15.4004 15.2281C15.3329 14.2388 14.9058 13.4182 14.1414 12.7887C12.6912 11.6196 10.8252 11.7882 9.59992 13.0023C8.3409 14.2501 8.13856 16.2398 9.54371 17.7798C7.85753 18.814 6.92451 20.2754 6.84583 22.2763H8.56573C8.56573 20.4665 9.97088 18.9601 11.7807 18.859C12.6688 18.814 13.4781 19.0501 14.1639 19.6121C15.0069 20.2978 15.4116 21.1971 15.4341 22.2651H17.1428C17.0416 20.2866 16.1423 18.7915 14.4449 17.7686V17.7798ZM11.9381 17.1391C11.05 17.1391 10.2632 16.3971 10.2744 15.4192C10.2294 14.5985 10.9489 13.688 12.0393 13.7105C12.9723 13.7217 13.703 14.4749 13.703 15.4416C13.703 16.4309 12.961 17.1391 11.9381 17.1391Z" fill="#008CDA"/>
</svg>
